<?xml version="1.0" encoding="utf-8"?>
<!-- Generator: Adobe Illustrator 20.0.0, SVG Export Plug-In . SVG Version: 6.00 Build 0)  -->
<svg version="1.1" id="Calque_1" xmlns="http://www.w3.org/2000/svg" xmlns:xlink="http://www.w3.org/1999/xlink" x="0px" y="0px"
	 viewBox="0 0 595.3 841.9" style="enable-background:new 0 0 595.3 841.9;" xml:space="preserve">
<style type="text/css">
	.st0{fill:none;stroke:#F72459;stroke-width:7.0807;stroke-miterlimit:10;}
	.st1{fill:#F72459;}
	.st2{fill:none;stroke:#FFC321;stroke-width:7.0807;stroke-miterlimit:10;}
	.st3{fill:#FFC321;}
	.st4{fill:none;stroke:#292929;stroke-width:9.8881;stroke-linecap:round;stroke-miterlimit:10;}
	.st5{fill:#0F112A;stroke:#292929;stroke-width:4.944;stroke-miterlimit:10;}
</style>
<g>
	<g>
		<g>
			<path class="st0" d="M73.2,356.7c-10.6,10.2-27.7,10.2-38.2,0c-10.6-10.2-10.6-26.8,0-37.1c10.6-10.2,27.7-10.2,38.2,0
				C83.8,329.8,83.8,346.4,73.2,356.7z"/>
			<g>
				<path class="st1" d="M53.8,376.5c-0.6,0-1.3-0.2-1.7-0.7l-16.4-15.9c-0.6-0.6-0.9-1.4-0.7-2.3c0.1-0.5,0.5-0.9,1-1.1
					c0.2-0.1,0.3-0.1,0.5-0.1c0.3,0,0.7,0.1,0.9,0.3c4.6,3.9,10.6,6,16.7,6c5,0,9.8-1.4,13.9-4c0.2-0.1,0.5-0.2,0.8-0.2
					c0.2,0,0.3,0,0.4,0.1c0.4,0.1,0.7,0.4,0.9,0.8c0.4,0.9,0.2,1.9-0.5,2.6l-14.1,13.7C55.1,376.3,54.5,376.5,53.8,376.5L53.8,376.5
					z"/>
				<g>
					<path class="st1" d="M36.4,358c5.1,4.2,11.4,6.4,17.7,6.4c5.1,0,10.3-1.4,14.7-4.2c0.1,0.3,0.1,0.7-0.2,1l-14.1,13.7
						c-0.2,0.2-0.4,0.3-0.7,0.3c-0.3,0-0.5-0.1-0.7-0.3l-16.4-15.9C36.4,358.6,36.4,358.3,36.4,358 M36.4,355
						c-0.3,0-0.6,0.1-0.9,0.2c-1,0.3-1.7,1.1-1.9,2.1c-0.3,1.3,0.1,2.7,1.1,3.6l16.4,15.9c0.7,0.7,1.7,1.1,2.8,1.1
						c1,0,2-0.4,2.7-1.1l14.1-13.7c1.1-1.1,1.5-2.8,0.9-4.3c-0.3-0.8-1-1.4-1.8-1.7c-0.3-0.1-0.6-0.1-0.9-0.1
						c-0.6,0-1.1,0.2-1.6,0.5c-3.9,2.5-8.4,3.8-13.1,3.8c-5.8,0-11.4-2-15.8-5.7C37.8,355.3,37.1,355,36.4,355L36.4,355z"/>
				</g>
			</g>
		</g>
		<g>
			<polygon class="st1" points="77.9,343.5 64.3,345.3 77.2,355.4 			"/>
		</g>
	</g>
	<g>
		<g>
			<path class="st2" d="M99.8,356.6c10.6,10.2,27.7,10.2,38.2,0c10.6-10.2,10.6-26.8,0-37.1c-10.6-10.2-27.7-10.2-38.2,0
				C89.3,329.8,89.3,346.4,99.8,356.6z"/>
			<g>
				<path class="st3" d="M119.2,376.5c-0.6,0-1.2-0.2-1.7-0.7l-14.1-13.7c-0.7-0.7-0.9-1.7-0.5-2.6c0.2-0.4,0.5-0.7,0.9-0.8
					c0.1,0,0.3-0.1,0.4-0.1c0.3,0,0.5,0.1,0.8,0.2c4.1,2.6,9,4,13.9,4c6.1,0,12.1-2.1,16.7-6c0.3-0.2,0.6-0.3,0.9-0.3
					c0.2,0,0.3,0,0.5,0.1c0.5,0.2,0.9,0.6,1,1.1c0.2,0.8-0.1,1.7-0.7,2.3l-16.4,15.9C120.5,376.3,119.9,376.5,119.2,376.5z"/>
				<g>
					<path class="st3" d="M136.6,357.9c0.1,0.3,0,0.6-0.3,0.9l-16.4,15.9c-0.2,0.2-0.4,0.3-0.7,0.3c-0.2,0-0.5-0.1-0.7-0.3
						l-14.1-13.7c-0.3-0.3-0.3-0.7-0.2-1c4.5,2.8,9.6,4.2,14.7,4.2C125.3,364.3,131.6,362.2,136.6,357.9 M136.6,355
						c-0.7,0-1.4,0.2-1.9,0.7c-4.4,3.7-10,5.7-15.8,5.7c-4.7,0-9.2-1.3-13.1-3.8c-0.5-0.3-1-0.5-1.6-0.5c-0.3,0-0.6,0-0.9,0.1
						c-0.8,0.3-1.5,0.9-1.8,1.7c-0.6,1.5-0.3,3.1,0.9,4.3l14.1,13.7c0.7,0.7,1.7,1.1,2.7,1.1c1,0,2-0.4,2.8-1.1l16.4-15.9
						c1-1,1.4-2.3,1.1-3.6c-0.2-1-1-1.8-1.9-2.1C137.3,355,136.9,355,136.6,355L136.6,355z"/>
				</g>
			</g>
		</g>
		<g>
			<polygon class="st3" points="94.1,344.4 107.8,343.5 97.3,356 			"/>
		</g>
	</g>
</g>
<g>
	<g>
		<g>
			<line class="st4" x1="348.5" y1="329.2" x2="348.5" y2="373.5"/>
		</g>
		<ellipse class="st5" cx="348.5" cy="313.3" rx="3.9" ry="3.7"/>
	</g>
	<g>
		<path class="st4" d="M330.7,362.1c0,6.4-5.4,11.7-12.1,11.7h0c-6.6,0-12.1-5.3-12.1-11.7v-33.2v-16.7"/>
		<g>
			<line class="st4" x1="311.3" y1="329.4" x2="321.7" y2="329.4"/>
		</g>
	</g>
	<path class="st4" d="M535.7,353.1"/>
	<path class="st4" d="M181.2,374l0-22.5c0-12.1,10.3-22,22.9-22h0c12.6,0,23,9.9,23,22l0,22.5"/>
	<g>
		<path class="st4" d="M365.5,328.3l7.8,19.2l8.5,21.1c2.9,7.3,12.9,7.3,15.9,0l6.1-15.1l9.6-25.2"/>
	</g>
	<path class="st4" d="M448.6,373.5V351c0-12.1,10.3-22,22.9-22h0c12.6,0,22.9,9.9,22.9,22v22.5"/>
	<g>
		<ellipse class="st4" cx="535.7" cy="351" rx="23.4" ry="22.7"/>
		<path class="st4" d="M512.3,380.2c0,12.5,10.5,22.7,23.4,22.7h0c12.9,0,23.4-10.2,23.4-22.7V348"/>
		<path class="st4" d="M535.7,351"/>
	</g>
	<g>
		<g>
			<ellipse class="st4" cx="266.5" cy="351.8" rx="22.4" ry="21.7"/>
		</g>
		<line class="st4" x1="288.9" y1="329.4" x2="289.1" y2="373.8"/>
	</g>
	<g>
		<g>
			<line class="st4" x1="431.2" y1="329.2" x2="431.2" y2="373.5"/>
		</g>
		<ellipse class="st5" cx="431.2" cy="313.3" rx="3.9" ry="3.7"/>
	</g>
</g>
</svg>
